<mxfile host="app.diagrams.net" modified="2022-01-18T05:47:25.183Z" agent="5.0 (Windows NT 10.0; Win64; x64) AppleWebKit/537.36 (KHTML, like Gecko) Chrome/97.0.4692.71 Safari/537.36" etag="BTMcLZZDD7aP1LojNg56" version="16.2.7" type="github">
  <diagram id="C5RBs43oDa-KdzZeNtuy" name="Page-1">
    <mxGraphModel dx="868" dy="450" grid="1" gridSize="10" guides="1" tooltips="1" connect="1" arrows="1" fold="1" page="1" pageScale="1" pageWidth="827" pageHeight="1169" math="0" shadow="0">
      <root>
        <mxCell id="WIyWlLk6GJQsqaUBKTNV-0" />
        <mxCell id="WIyWlLk6GJQsqaUBKTNV-1" parent="WIyWlLk6GJQsqaUBKTNV-0" />
        <mxCell id="BZpoIqLijsbw2Y6wtcI_-1" value="start" style="rounded=1;whiteSpace=wrap;html=1;" vertex="1" parent="WIyWlLk6GJQsqaUBKTNV-1">
          <mxGeometry x="350" y="180" width="90" height="60" as="geometry" />
        </mxCell>
        <mxCell id="BZpoIqLijsbw2Y6wtcI_-4" value="" style="rhombus;whiteSpace=wrap;html=1;fontSize=13;" vertex="1" parent="WIyWlLk6GJQsqaUBKTNV-1">
          <mxGeometry x="355" y="340" width="80" height="80" as="geometry" />
        </mxCell>
        <mxCell id="BZpoIqLijsbw2Y6wtcI_-6" value="" style="endArrow=classic;html=1;rounded=0;fontSize=13;entryX=0.5;entryY=0;entryDx=0;entryDy=0;" edge="1" parent="WIyWlLk6GJQsqaUBKTNV-1" target="BZpoIqLijsbw2Y6wtcI_-4">
          <mxGeometry width="50" height="50" relative="1" as="geometry">
            <mxPoint x="395" y="240" as="sourcePoint" />
            <mxPoint x="420" y="260" as="targetPoint" />
          </mxGeometry>
        </mxCell>
        <mxCell id="BZpoIqLijsbw2Y6wtcI_-8" value="" style="endArrow=classic;html=1;rounded=0;fontSize=13;" edge="1" parent="WIyWlLk6GJQsqaUBKTNV-1">
          <mxGeometry width="50" height="50" relative="1" as="geometry">
            <mxPoint x="435" y="379.5" as="sourcePoint" />
            <mxPoint x="495" y="379.5" as="targetPoint" />
          </mxGeometry>
        </mxCell>
        <mxCell id="BZpoIqLijsbw2Y6wtcI_-10" value="yes" style="edgeLabel;html=1;align=center;verticalAlign=middle;resizable=0;points=[];fontSize=13;" vertex="1" connectable="0" parent="BZpoIqLijsbw2Y6wtcI_-8">
          <mxGeometry x="-0.3333" y="4" relative="1" as="geometry">
            <mxPoint y="1" as="offset" />
          </mxGeometry>
        </mxCell>
      </root>
    </mxGraphModel>
  </diagram>
</mxfile>
